<mxfile host="app.diagrams.net" agent="Mozilla/5.0 (Windows NT 10.0; Win64; x64) AppleWebKit/537.36 (KHTML, like Gecko) Chrome/137.0.0.0 Safari/537.36" version="27.1.6">
  <diagram name="第 1 页" id="pT97nRvQxbHc4Q3r8fLU">
    <mxGraphModel dx="2316" dy="1249" grid="1" gridSize="10" guides="1" tooltips="1" connect="1" arrows="1" fold="1" page="1" pageScale="1" pageWidth="827" pageHeight="1169" math="0" shadow="0">
      <root>
        <mxCell id="0" />
        <mxCell id="1" parent="0" />
        <mxCell id="09XS701ov1DDyluY0Lh6-17" value="" style="rounded=1;whiteSpace=wrap;html=1;" vertex="1" parent="1">
          <mxGeometry x="308.96" y="470" width="1041.04" height="330" as="geometry" />
        </mxCell>
        <mxCell id="09XS701ov1DDyluY0Lh6-32" value="" style="edgeStyle=orthogonalEdgeStyle;rounded=0;orthogonalLoop=1;jettySize=auto;html=1;" edge="1" parent="1" source="09XS701ov1DDyluY0Lh6-33">
          <mxGeometry relative="1" as="geometry">
            <mxPoint x="368.96000000000004" y="590" as="targetPoint" />
          </mxGeometry>
        </mxCell>
        <mxCell id="09XS701ov1DDyluY0Lh6-33" value="&lt;font style=&quot;font-size: 18px;&quot;&gt;&lt;b&gt;二进制程序&lt;/b&gt;&lt;/font&gt;" style="shape=note;whiteSpace=wrap;html=1;backgroundOutline=1;darkOpacity=0.05;" vertex="1" parent="1">
          <mxGeometry x="108.96000000000001" y="520" width="110" height="140" as="geometry" />
        </mxCell>
        <mxCell id="09XS701ov1DDyluY0Lh6-34" value="" style="edgeStyle=orthogonalEdgeStyle;rounded=0;orthogonalLoop=1;jettySize=auto;html=1;entryX=0;entryY=0.5;entryDx=0;entryDy=0;" edge="1" parent="1" source="09XS701ov1DDyluY0Lh6-35" target="09XS701ov1DDyluY0Lh6-37">
          <mxGeometry relative="1" as="geometry" />
        </mxCell>
        <mxCell id="09XS701ov1DDyluY0Lh6-35" value="反编译与语义恢复" style="swimlane;whiteSpace=wrap;html=1;" vertex="1" parent="1">
          <mxGeometry x="368.96000000000004" y="530" width="250" height="100" as="geometry" />
        </mxCell>
        <mxCell id="09XS701ov1DDyluY0Lh6-36" value="&lt;font style=&quot;font-size: 16px;&quot;&gt;工具：IDA Pro / Ghidra等&lt;/font&gt;&lt;div&gt;&lt;font style=&quot;font-size: 16px;&quot;&gt;输出：类C代码&lt;/font&gt;&lt;/div&gt;" style="text;html=1;align=center;verticalAlign=middle;resizable=0;points=[];autosize=1;strokeColor=none;fillColor=none;" vertex="1" parent="09XS701ov1DDyluY0Lh6-35">
          <mxGeometry x="25" y="35" width="200" height="50" as="geometry" />
        </mxCell>
        <mxCell id="09XS701ov1DDyluY0Lh6-37" value="基础图构建" style="swimlane;whiteSpace=wrap;html=1;" vertex="1" parent="1">
          <mxGeometry x="688.96" y="530" width="250" height="100" as="geometry" />
        </mxCell>
        <mxCell id="09XS701ov1DDyluY0Lh6-38" value="&lt;span style=&quot;font-size: 16px;&quot;&gt;AST / CPG / PDG&lt;/span&gt;" style="text;html=1;align=center;verticalAlign=middle;resizable=0;points=[];autosize=1;strokeColor=none;fillColor=none;" vertex="1" parent="09XS701ov1DDyluY0Lh6-37">
          <mxGeometry x="50" y="45" width="150" height="30" as="geometry" />
        </mxCell>
        <mxCell id="09XS701ov1DDyluY0Lh6-39" value="补充子图构建" style="swimlane;whiteSpace=wrap;html=1;" vertex="1" parent="1">
          <mxGeometry x="688.96" y="670" width="250" height="100" as="geometry" />
        </mxCell>
        <mxCell id="09XS701ov1DDyluY0Lh6-40" value="&lt;span style=&quot;font-size: 16px;&quot;&gt;Call Graph / FDG等&lt;/span&gt;" style="text;html=1;align=center;verticalAlign=middle;resizable=0;points=[];autosize=1;strokeColor=none;fillColor=none;" vertex="1" parent="09XS701ov1DDyluY0Lh6-39">
          <mxGeometry x="45" y="45" width="160" height="30" as="geometry" />
        </mxCell>
        <mxCell id="09XS701ov1DDyluY0Lh6-41" value="" style="endArrow=classic;html=1;rounded=0;" edge="1" parent="1">
          <mxGeometry width="50" height="50" relative="1" as="geometry">
            <mxPoint x="648.96" y="580" as="sourcePoint" />
            <mxPoint x="688.96" y="730" as="targetPoint" />
            <Array as="points">
              <mxPoint x="648.96" y="730" />
            </Array>
          </mxGeometry>
        </mxCell>
        <mxCell id="09XS701ov1DDyluY0Lh6-42" value="" style="endArrow=classic;html=1;rounded=0;exitX=1;exitY=0.5;exitDx=0;exitDy=0;entryX=0.16;entryY=0.55;entryDx=0;entryDy=0;entryPerimeter=0;" edge="1" parent="1" source="09XS701ov1DDyluY0Lh6-37" target="09XS701ov1DDyluY0Lh6-73">
          <mxGeometry width="50" height="50" relative="1" as="geometry">
            <mxPoint x="658.96" y="600" as="sourcePoint" />
            <mxPoint x="1150" y="650" as="targetPoint" />
            <Array as="points">
              <mxPoint x="1008.96" y="580" />
              <mxPoint x="1008.96" y="650" />
            </Array>
          </mxGeometry>
        </mxCell>
        <mxCell id="09XS701ov1DDyluY0Lh6-43" value="" style="endArrow=none;html=1;rounded=0;" edge="1" parent="1">
          <mxGeometry width="50" height="50" relative="1" as="geometry">
            <mxPoint x="938.96" y="730" as="sourcePoint" />
            <mxPoint x="1008.96" y="650" as="targetPoint" />
            <Array as="points">
              <mxPoint x="1008.96" y="730" />
            </Array>
          </mxGeometry>
        </mxCell>
        <mxCell id="09XS701ov1DDyluY0Lh6-44" value="&lt;font style=&quot;font-size: 20px;&quot;&gt;图数据库&lt;/font&gt;" style="shape=cylinder3;whiteSpace=wrap;html=1;boundedLbl=1;backgroundOutline=1;size=15;" vertex="1" parent="1">
          <mxGeometry x="1420" y="600" width="110" height="100" as="geometry" />
        </mxCell>
        <mxCell id="09XS701ov1DDyluY0Lh6-45" value="&lt;font style=&quot;font-size: 18px;&quot;&gt;图融合&lt;/font&gt;" style="text;html=1;align=center;verticalAlign=middle;resizable=0;points=[];autosize=1;strokeColor=none;fillColor=none;" vertex="1" parent="1">
          <mxGeometry x="1018.96" y="605" width="80" height="40" as="geometry" />
        </mxCell>
        <mxCell id="09XS701ov1DDyluY0Lh6-46" value="&lt;b&gt;&lt;font style=&quot;font-size: 24px;&quot;&gt;软件图谱的构建&lt;/font&gt;&lt;/b&gt;" style="text;html=1;align=center;verticalAlign=middle;whiteSpace=wrap;rounded=0;" vertex="1" parent="1">
          <mxGeometry x="710" y="480" width="180" height="30" as="geometry" />
        </mxCell>
        <mxCell id="09XS701ov1DDyluY0Lh6-47" value="" style="rounded=1;whiteSpace=wrap;html=1;" vertex="1" parent="1">
          <mxGeometry x="406.72" y="100" width="845.52" height="240" as="geometry" />
        </mxCell>
        <mxCell id="09XS701ov1DDyluY0Lh6-48" value="&lt;font style=&quot;font-size: 24px;&quot;&gt;&lt;b style=&quot;&quot;&gt;软件图谱的设计&lt;/b&gt;&lt;/font&gt;" style="text;html=1;align=center;verticalAlign=middle;whiteSpace=wrap;rounded=0;" vertex="1" parent="1">
          <mxGeometry x="681.2" y="130" width="270" height="50" as="geometry" />
        </mxCell>
        <mxCell id="09XS701ov1DDyluY0Lh6-50" value="" style="rounded=1;whiteSpace=wrap;html=1;" vertex="1" parent="1">
          <mxGeometry x="1654" y="480" width="506" height="310" as="geometry" />
        </mxCell>
        <mxCell id="09XS701ov1DDyluY0Lh6-51" value="&lt;font style=&quot;font-size: 24px;&quot;&gt;&lt;b style=&quot;&quot;&gt;软件图谱的应用&lt;/b&gt;&lt;/font&gt;" style="text;html=1;align=center;verticalAlign=middle;whiteSpace=wrap;rounded=0;" vertex="1" parent="1">
          <mxGeometry x="1792" y="500" width="230" height="30" as="geometry" />
        </mxCell>
        <mxCell id="09XS701ov1DDyluY0Lh6-57" value="&lt;font style=&quot;font-size: 20px;&quot;&gt;漏洞行为建模&lt;/font&gt;" style="rounded=1;whiteSpace=wrap;html=1;" vertex="1" parent="1">
          <mxGeometry x="1934" y="560" width="170" height="70" as="geometry" />
        </mxCell>
        <mxCell id="09XS701ov1DDyluY0Lh6-60" value="&lt;font style=&quot;font-size: 20px;&quot;&gt;图查询语句&lt;/font&gt;" style="rounded=1;whiteSpace=wrap;html=1;" vertex="1" parent="1">
          <mxGeometry x="1934" y="665" width="170" height="70" as="geometry" />
        </mxCell>
        <mxCell id="09XS701ov1DDyluY0Lh6-62" value="&lt;font style=&quot;font-size: 20px;&quot;&gt;漏洞查询语句&lt;/font&gt;" style="rounded=1;whiteSpace=wrap;html=1;" vertex="1" parent="1">
          <mxGeometry x="1694" y="615" width="170" height="70" as="geometry" />
        </mxCell>
        <mxCell id="09XS701ov1DDyluY0Lh6-63" value="" style="endArrow=classic;html=1;rounded=0;exitX=0;exitY=0.5;exitDx=0;exitDy=0;entryX=1;entryY=0.5;entryDx=0;entryDy=0;" edge="1" parent="1" source="09XS701ov1DDyluY0Lh6-57" target="09XS701ov1DDyluY0Lh6-62">
          <mxGeometry width="50" height="50" relative="1" as="geometry">
            <mxPoint x="1444" y="610" as="sourcePoint" />
            <mxPoint x="1494" y="560" as="targetPoint" />
            <Array as="points">
              <mxPoint x="1904" y="595" />
              <mxPoint x="1904" y="650" />
            </Array>
          </mxGeometry>
        </mxCell>
        <mxCell id="09XS701ov1DDyluY0Lh6-64" value="" style="endArrow=none;html=1;rounded=0;exitX=0;exitY=0.5;exitDx=0;exitDy=0;" edge="1" parent="1" source="09XS701ov1DDyluY0Lh6-60">
          <mxGeometry width="50" height="50" relative="1" as="geometry">
            <mxPoint x="1444" y="610" as="sourcePoint" />
            <mxPoint x="1904" y="650" as="targetPoint" />
            <Array as="points">
              <mxPoint x="1904" y="700" />
            </Array>
          </mxGeometry>
        </mxCell>
        <mxCell id="09XS701ov1DDyluY0Lh6-65" value="" style="endArrow=classic;html=1;rounded=0;exitX=0;exitY=0.5;exitDx=0;exitDy=0;entryX=1;entryY=0.5;entryDx=0;entryDy=0;entryPerimeter=0;" edge="1" parent="1" source="09XS701ov1DDyluY0Lh6-62" target="09XS701ov1DDyluY0Lh6-44">
          <mxGeometry width="50" height="50" relative="1" as="geometry">
            <mxPoint x="1420" y="530" as="sourcePoint" />
            <mxPoint x="1470" y="480" as="targetPoint" />
          </mxGeometry>
        </mxCell>
        <mxCell id="09XS701ov1DDyluY0Lh6-66" value="&lt;font style=&quot;font-size: 20px;&quot;&gt;多粒度图结构设计&lt;/font&gt;" style="rounded=1;whiteSpace=wrap;html=1;" vertex="1" parent="1">
          <mxGeometry x="426.72" y="210" width="220" height="60" as="geometry" />
        </mxCell>
        <mxCell id="09XS701ov1DDyluY0Lh6-67" value="&lt;font style=&quot;font-size: 20px;&quot;&gt;图融合设计&lt;/font&gt;" style="rounded=1;whiteSpace=wrap;html=1;" vertex="1" parent="1">
          <mxGeometry x="706.72" y="210" width="220" height="60" as="geometry" />
        </mxCell>
        <mxCell id="09XS701ov1DDyluY0Lh6-68" value="&lt;font style=&quot;font-size: 20px;&quot;&gt;可扩展性设计&lt;/font&gt;" style="rounded=1;whiteSpace=wrap;html=1;" vertex="1" parent="1">
          <mxGeometry x="1006.72" y="210" width="220" height="60" as="geometry" />
        </mxCell>
        <mxCell id="09XS701ov1DDyluY0Lh6-70" value="&lt;font style=&quot;font-size: 20px;&quot;&gt;&lt;b&gt;漏洞挖掘结果&lt;/b&gt;&lt;/font&gt;" style="shape=cube;whiteSpace=wrap;html=1;boundedLbl=1;backgroundOutline=1;darkOpacity=0.05;darkOpacity2=0.1;" vertex="1" parent="1">
          <mxGeometry x="1370" y="880" width="230" height="110" as="geometry" />
        </mxCell>
        <mxCell id="09XS701ov1DDyluY0Lh6-71" value="" style="endArrow=classic;html=1;rounded=0;exitX=0.5;exitY=1;exitDx=0;exitDy=0;exitPerimeter=0;entryX=0;entryY=0;entryDx=105;entryDy=0;entryPerimeter=0;" edge="1" parent="1" source="09XS701ov1DDyluY0Lh6-44" target="09XS701ov1DDyluY0Lh6-70">
          <mxGeometry width="50" height="50" relative="1" as="geometry">
            <mxPoint x="1240" y="680" as="sourcePoint" />
            <mxPoint x="1290" y="630" as="targetPoint" />
          </mxGeometry>
        </mxCell>
        <mxCell id="09XS701ov1DDyluY0Lh6-73" value="&lt;font style=&quot;font-size: 20px;&quot;&gt;增强CPG图&lt;/font&gt;" style="ellipse;shape=cloud;whiteSpace=wrap;html=1;" vertex="1" parent="1">
          <mxGeometry x="1110" y="590" width="220" height="110" as="geometry" />
        </mxCell>
        <mxCell id="09XS701ov1DDyluY0Lh6-76" value="" style="endArrow=classic;html=1;rounded=0;exitX=0.875;exitY=0.5;exitDx=0;exitDy=0;exitPerimeter=0;entryX=0;entryY=0.5;entryDx=0;entryDy=0;entryPerimeter=0;" edge="1" parent="1" source="09XS701ov1DDyluY0Lh6-73" target="09XS701ov1DDyluY0Lh6-44">
          <mxGeometry width="50" height="50" relative="1" as="geometry">
            <mxPoint x="1310" y="420" as="sourcePoint" />
            <mxPoint x="1360" y="370" as="targetPoint" />
          </mxGeometry>
        </mxCell>
        <mxCell id="09XS701ov1DDyluY0Lh6-79" value="" style="endArrow=classic;html=1;rounded=0;exitX=0.488;exitY=0.998;exitDx=0;exitDy=0;exitPerimeter=0;entryX=0.49;entryY=0.002;entryDx=0;entryDy=0;entryPerimeter=0;" edge="1" parent="1" source="09XS701ov1DDyluY0Lh6-47" target="09XS701ov1DDyluY0Lh6-17">
          <mxGeometry width="50" height="50" relative="1" as="geometry">
            <mxPoint x="1080" y="390" as="sourcePoint" />
            <mxPoint x="1130" y="340" as="targetPoint" />
          </mxGeometry>
        </mxCell>
        <mxCell id="09XS701ov1DDyluY0Lh6-80" value="&lt;font style=&quot;font-size: 20px;&quot;&gt;提供支持&lt;/font&gt;" style="text;html=1;align=center;verticalAlign=middle;resizable=0;points=[];autosize=1;strokeColor=none;fillColor=none;" vertex="1" parent="1">
          <mxGeometry x="827" y="375" width="100" height="40" as="geometry" />
        </mxCell>
      </root>
    </mxGraphModel>
  </diagram>
</mxfile>
